<svg id="svg" version="1.1" xmlns="http://www.w3.org/2000/svg" width="40"
     height="40" viewBox="0, 0, 400,417.9372197309417">
    <g id="svgg">
        <path id="path0"
              d="M28.000 145.076 C 20.007 145.286,20.328 144.791,20.608 156.476 C 20.720 161.164,20.894 180.210,20.994 198.800 C 21.094 217.390,21.182 232.722,21.188 232.871 C 21.256 234.433,29.199 234.818,35.600 233.570 C 36.810 233.334,39.193 233.007,40.895 232.842 C 44.608 232.483,45.634 231.100,42.844 230.214 C 42.427 230.082,41.994 229.620,41.881 229.189 C 41.768 228.757,41.344 228.282,40.938 228.132 C 40.532 227.982,39.788 227.596,39.285 227.274 L 38.371 226.689 39.631 225.922 L 40.892 225.156 39.346 224.154 L 37.800 223.152 37.906 208.676 C 37.964 200.714,38.171 193.750,38.365 193.200 C 38.560 192.650,38.931 190.850,39.190 189.200 C 39.449 187.550,39.842 185.480,40.062 184.600 C 40.283 183.720,40.608 182.280,40.784 181.400 C 41.187 179.390,41.975 177.182,42.569 176.400 C 43.366 175.351,44.688 172.639,44.956 171.502 C 46.268 165.929,56.373 160.598,65.400 160.717 C 76.393 160.861,88.708 167.055,88.809 172.492 C 88.815 172.771,89.273 174.080,89.829 175.400 C 90.476 176.939,91.039 179.451,91.398 182.400 C 91.706 184.930,92.223 188.133,92.548 189.518 C 92.883 190.950,93.065 193.107,92.968 194.518 C 92.875 195.883,92.736 201.080,92.659 206.067 C 92.521 214.967,92.499 215.171,91.459 217.159 C 90.877 218.274,90.400 219.607,90.400 220.123 C 90.400 220.639,89.944 221.489,89.386 222.013 C 88.631 222.722,88.430 223.227,88.598 223.990 C 88.732 224.601,88.581 225.336,88.224 225.808 C 87.895 226.244,87.620 226.932,87.613 227.338 C 87.592 228.559,86.148 230.212,84.424 230.989 C 81.205 232.441,82.606 232.720,95.600 233.215 C 100.770 233.411,105.646 233.688,106.435 233.828 C 108.232 234.148,112.113 233.369,113.177 232.474 C 113.968 231.810,113.983 231.214,114.197 191.600 C 114.317 169.490,114.516 150.844,114.640 150.164 C 114.980 148.296,114.162 145.753,113.097 145.365 C 112.260 145.061,38.148 144.809,28.000 145.076 M366.348 145.785 C 366.213 145.920,347.490 146.176,324.742 146.353 C 294.817 146.586,283.143 146.802,282.519 147.136 C 280.991 147.954,280.677 150.972,281.189 159.914 C 281.437 164.251,281.727 182.290,281.832 200.000 C 282.047 236.073,281.924 233.826,283.700 234.239 C 287.396 235.099,309.071 234.214,310.429 233.148 L 311.400 232.386 310.225 231.418 C 309.175 230.553,309.098 230.342,309.509 229.441 C 309.971 228.426,308.567 226.800,307.229 226.800 C 306.939 226.800,306.987 226.483,307.365 225.900 C 307.873 225.117,307.874 224.899,307.374 224.224 C 307.058 223.796,306.800 222.911,306.800 222.255 C 306.800 221.599,306.557 220.779,306.260 220.431 C 305.718 219.799,304.571 209.093,304.975 208.440 C 305.084 208.263,305.455 204.717,305.799 200.559 C 306.440 192.819,306.769 191.095,308.005 189.000 C 308.395 188.340,308.833 187.236,308.978 186.547 C 309.586 183.670,315.867 178.815,319.000 178.801 C 319.440 178.799,320.340 178.472,321.000 178.074 C 325.008 175.658,341.115 174.879,345.240 176.902 C 346.472 177.506,347.782 178.000,348.152 178.000 C 348.522 178.000,348.931 178.277,349.061 178.615 C 349.191 178.953,349.804 179.492,350.423 179.812 C 352.740 181.010,355.202 184.912,356.173 188.924 C 356.662 190.946,357.273 192.993,357.531 193.474 C 358.307 194.919,358.164 206.789,357.357 207.941 C 356.850 208.663,356.770 209.390,356.980 211.350 C 357.178 213.202,357.046 214.658,356.465 217.021 C 356.035 218.769,355.457 221.550,355.181 223.200 C 354.781 225.588,354.432 226.463,353.469 227.491 C 352.332 228.705,352.300 228.826,352.924 229.516 C 353.475 230.125,353.510 230.454,353.128 231.466 C 352.386 233.431,352.813 233.848,355.864 234.136 C 359.965 234.523,374.916 234.441,375.569 234.027 C 376.465 233.461,376.800 229.259,376.591 221.200 C 376.304 210.108,375.999 180.171,375.999 163.122 C 376.000 144.896,376.427 146.216,370.397 145.801 C 368.305 145.658,366.483 145.650,366.348 145.785 M114.740 291.636 C 112.783 292.382,112.622 293.527,112.610 306.799 C 112.602 316.493,112.717 319.279,113.171 320.355 L 113.743 321.711 133.171 321.450 C 143.857 321.306,158.990 321.101,166.800 320.993 C 174.610 320.886,205.840 320.938,236.200 321.110 C 266.560 321.281,291.612 321.358,291.872 321.279 C 294.073 320.612,294.309 294.150,292.131 292.342 C 291.697 291.983,271.158 291.843,206.280 291.757 C 159.376 291.695,119.830 291.552,118.400 291.438 C 116.970 291.325,115.323 291.413,114.740 291.636 "
              stroke="none" fill="#392e23" fill-rule="evenodd"></path>
        <path id="path1"
              d="M0.000 208.800 L 0.000 417.600 200.000 417.600 L 400.000 417.600 400.000 208.800 L 400.000 0.000 200.000 0.000 L 0.000 0.000 0.000 208.800 M114.653 143.199 C 116.900 144.608,116.795 142.049,116.545 189.240 C 116.297 236.213,116.436 233.572,114.137 235.078 C 113.131 235.737,96.861 235.876,67.400 235.477 C 65.420 235.450,54.620 235.677,43.400 235.980 L 23.000 236.532 21.284 235.650 C 18.664 234.303,18.735 235.053,18.765 208.800 C 18.780 195.710,18.627 177.530,18.426 168.400 C 17.989 148.580,18.349 144.973,20.909 143.509 C 22.859 142.395,112.897 142.097,114.653 143.199 M374.630 143.823 C 375.306 143.926,376.386 144.559,377.030 145.230 L 378.200 146.450 378.302 152.525 C 378.642 172.652,379.017 229.482,378.827 231.980 C 378.435 237.124,383.564 236.636,330.600 236.567 C 317.180 236.550,301.160 236.550,295.000 236.568 C 282.868 236.603,282.242 236.533,280.680 234.971 L 279.635 233.926 279.608 216.263 C 279.576 195.131,279.317 171.067,278.975 157.551 C 278.759 148.974,278.809 147.542,279.367 146.463 C 280.573 144.131,275.174 144.339,347.508 143.846 C 357.908 143.775,366.542 143.592,366.695 143.438 C 366.958 143.175,371.967 143.418,374.630 143.823 M268.200 289.371 C 278.320 289.490,288.009 289.591,289.731 289.594 C 292.678 289.600,292.932 289.671,294.071 290.810 L 295.281 292.019 295.110 306.710 C 294.989 317.148,294.800 321.660,294.456 322.300 L 293.972 323.200 215.486 323.217 C 172.319 323.226,132.642 323.380,127.315 323.560 C 117.451 323.892,112.587 323.547,111.476 322.436 C 110.956 321.917,110.539 295.001,111.011 292.432 C 111.149 291.679,111.759 290.599,112.366 290.032 L 113.470 289.000 181.635 289.077 C 219.126 289.120,258.080 289.252,268.200 289.371 "
              stroke="none" fill="#cb832b" fill-rule="evenodd"></path>
        <path id="path2"
              d="M63.102 160.627 C 62.938 160.793,61.318 161.154,59.502 161.429 C 52.971 162.416,45.951 167.278,44.956 171.502 C 44.688 172.639,43.366 175.351,42.569 176.400 C 41.975 177.182,41.187 179.390,40.784 181.400 C 40.608 182.280,40.283 183.720,40.062 184.600 C 39.842 185.480,39.449 187.550,39.190 189.200 C 38.931 190.850,38.560 192.650,38.365 193.200 C 38.171 193.750,37.964 200.714,37.906 208.676 L 37.800 223.152 39.346 224.154 L 40.892 225.156 39.631 225.922 L 38.371 226.689 39.285 227.274 C 39.788 227.596,40.532 227.982,40.938 228.132 C 41.344 228.282,41.770 228.763,41.885 229.202 C 41.999 229.641,42.252 230.000,42.447 230.000 C 43.678 230.000,44.806 232.250,43.700 232.499 C 43.315 232.586,52.450 232.662,64.000 232.667 C 75.550 232.673,84.505 232.603,83.900 232.512 C 82.374 232.283,82.524 231.846,84.424 230.989 C 86.148 230.212,87.592 228.559,87.613 227.338 C 87.620 226.932,87.895 226.244,88.224 225.808 C 88.581 225.336,88.732 224.601,88.598 223.990 C 88.430 223.227,88.631 222.722,89.386 222.013 C 89.944 221.489,90.400 220.639,90.400 220.123 C 90.400 219.607,90.877 218.274,91.459 217.159 C 92.499 215.171,92.521 214.967,92.659 206.067 C 92.736 201.080,92.875 195.883,92.968 194.518 C 93.065 193.107,92.883 190.950,92.548 189.518 C 92.223 188.133,91.706 184.930,91.398 182.400 C 91.039 179.451,90.476 176.939,89.829 175.400 C 89.273 174.080,88.815 172.771,88.809 172.492 C 88.771 170.449,83.163 164.745,80.034 163.567 C 76.109 162.088,63.772 159.946,63.102 160.627 M66.457 172.369 C 68.595 172.645,69.595 173.038,71.575 174.383 C 72.928 175.302,74.568 176.240,75.218 176.466 C 75.868 176.693,76.400 177.121,76.400 177.419 C 76.400 177.716,77.035 178.444,77.812 179.036 C 79.046 179.977,79.219 180.321,79.178 181.757 C 79.153 182.661,79.347 185.560,79.609 188.200 C 80.225 194.405,79.547 205.716,78.410 208.200 C 78.008 209.080,77.381 211.060,77.018 212.600 C 76.477 214.895,76.073 215.676,74.779 216.930 C 73.795 217.883,73.200 218.826,73.200 219.430 C 73.200 219.964,73.020 220.400,72.800 220.400 C 72.580 220.400,72.400 220.625,72.399 220.900 C 72.398 221.175,71.723 221.761,70.899 222.203 C 69.784 222.801,69.400 223.261,69.400 224.002 C 69.400 225.699,65.040 226.642,62.741 225.442 C 61.926 225.017,61.321 224.986,60.124 225.305 C 57.821 225.920,55.600 225.406,55.600 224.257 C 55.600 223.714,55.119 222.995,54.400 222.463 C 53.591 221.865,53.200 221.230,53.200 220.514 C 53.200 219.177,51.655 213.574,51.097 212.887 C 50.868 212.604,50.630 210.534,50.568 208.287 C 50.507 206.039,50.177 202.940,49.835 201.400 C 49.027 197.758,49.012 194.654,49.800 194.000 C 50.130 193.726,50.405 193.029,50.410 192.451 C 50.421 191.318,51.488 186.646,52.726 182.307 C 53.465 179.716,53.822 179.180,57.263 175.500 C 57.829 174.895,58.513 174.400,58.784 174.400 C 59.055 174.400,59.780 174.041,60.396 173.603 C 62.636 172.008,63.033 171.927,66.457 172.369 M330.600 175.768 C 330.380 175.855,328.400 176.247,326.200 176.638 C 324.000 177.030,321.660 177.676,321.000 178.074 C 320.340 178.472,319.440 178.799,319.000 178.801 C 315.867 178.815,309.586 183.670,308.978 186.547 C 308.833 187.236,308.395 188.340,308.005 189.000 C 306.769 191.095,306.440 192.819,305.799 200.559 C 305.455 204.717,305.084 208.263,304.975 208.440 C 304.571 209.093,305.718 219.799,306.260 220.431 C 306.557 220.779,306.800 221.599,306.800 222.255 C 306.800 222.911,307.058 223.796,307.374 224.224 C 307.874 224.899,307.873 225.117,307.365 225.900 C 306.987 226.483,306.939 226.800,307.229 226.800 C 308.567 226.800,309.971 228.426,309.509 229.441 C 309.099 230.340,309.173 230.548,310.189 231.359 C 310.816 231.859,311.206 232.466,311.056 232.709 C 310.859 233.028,315.644 233.172,328.292 233.229 C 355.614 233.353,352.496 233.545,353.074 231.700 C 353.470 230.436,353.443 230.089,352.902 229.491 C 352.307 228.834,352.348 228.688,353.469 227.491 C 354.432 226.463,354.781 225.588,355.181 223.200 C 355.457 221.550,356.035 218.769,356.465 217.021 C 357.046 214.658,357.178 213.202,356.980 211.350 C 356.770 209.390,356.850 208.663,357.357 207.941 C 358.164 206.789,358.307 194.919,357.531 193.474 C 357.273 192.993,356.662 190.946,356.173 188.924 C 355.202 184.912,352.740 181.010,350.423 179.812 C 349.804 179.492,349.191 178.953,349.061 178.615 C 348.931 178.277,348.522 178.000,348.152 178.000 C 347.782 178.000,346.499 177.520,345.300 176.934 C 343.257 175.934,332.365 175.071,330.600 175.768 M338.360 189.662 C 344.758 192.645,345.339 193.288,346.212 198.347 C 346.559 200.359,346.736 202.179,346.605 202.392 C 346.474 202.604,346.367 204.716,346.367 207.085 C 346.367 212.926,343.475 218.800,340.600 218.800 C 339.223 218.800,338.586 222.017,339.826 222.711 C 340.904 223.314,336.261 224.168,335.147 223.572 C 334.561 223.258,333.287 223.177,331.421 223.334 C 328.391 223.591,326.660 223.349,327.046 222.725 C 327.177 222.514,326.935 221.949,326.508 221.470 C 326.082 220.992,325.253 219.758,324.667 218.729 C 324.080 217.700,323.083 216.440,322.450 215.929 L 321.300 215.000 321.111 207.400 C 320.870 197.743,321.299 194.658,322.908 194.473 C 323.561 194.398,324.361 193.880,324.854 193.213 C 325.726 192.033,327.475 191.119,330.200 190.419 C 331.080 190.193,332.340 189.639,333.000 189.189 C 334.380 188.248,335.549 188.351,338.360 189.662 M328.538 221.417 C 328.233 222.212,328.354 222.307,329.800 222.404 C 331.923 222.547,332.071 222.480,331.600 221.600 C 331.076 220.620,328.894 220.490,328.538 221.417 "
              stroke="none" fill="#666567" fill-rule="evenodd"></path>
        <path id="path3"
              d="M62.458 172.428 C 61.940 172.635,61.012 173.164,60.396 173.603 C 59.780 174.041,59.055 174.400,58.784 174.400 C 58.513 174.400,57.829 174.895,57.263 175.500 C 53.822 179.180,53.465 179.716,52.726 182.307 C 51.488 186.646,50.421 191.318,50.410 192.451 C 50.405 193.029,50.130 193.726,49.800 194.000 C 49.012 194.654,49.027 197.758,49.835 201.400 C 50.177 202.940,50.507 206.039,50.568 208.287 C 50.630 210.534,50.868 212.604,51.097 212.887 C 51.655 213.574,53.200 219.177,53.200 220.514 C 53.200 221.230,53.591 221.865,54.400 222.463 C 55.119 222.995,55.600 223.714,55.600 224.257 C 55.600 225.406,57.821 225.920,60.124 225.305 C 61.321 224.986,61.926 225.017,62.741 225.442 C 65.040 226.642,69.400 225.699,69.400 224.002 C 69.400 223.261,69.784 222.801,70.899 222.203 C 71.723 221.761,72.398 221.175,72.399 220.900 C 72.400 220.625,72.580 220.400,72.800 220.400 C 73.020 220.400,73.200 219.964,73.200 219.430 C 73.200 218.826,73.795 217.883,74.779 216.930 C 76.073 215.676,76.477 214.895,77.018 212.600 C 77.381 211.060,78.008 209.080,78.410 208.200 C 79.547 205.716,80.225 194.405,79.609 188.200 C 79.347 185.560,79.153 182.661,79.178 181.757 C 79.219 180.321,79.046 179.977,77.812 179.036 C 77.035 178.444,76.400 177.716,76.400 177.419 C 76.400 177.121,75.868 176.693,75.218 176.466 C 74.568 176.240,72.928 175.302,71.575 174.383 C 69.595 173.038,68.595 172.645,66.457 172.369 C 63.312 171.963,63.630 171.958,62.458 172.428 M333.000 189.189 C 332.340 189.639,331.080 190.193,330.200 190.419 C 327.475 191.119,325.726 192.033,324.854 193.213 C 324.361 193.880,323.561 194.398,322.908 194.473 C 321.299 194.658,320.870 197.743,321.111 207.400 L 321.300 215.000 322.450 215.929 C 323.083 216.440,324.080 217.700,324.667 218.729 C 325.253 219.758,326.082 220.992,326.508 221.470 C 326.935 221.949,327.177 222.514,327.046 222.725 C 326.660 223.349,328.391 223.591,331.421 223.334 C 333.287 223.177,334.561 223.258,335.147 223.572 C 336.261 224.168,340.904 223.314,339.826 222.711 C 338.586 222.017,339.223 218.800,340.600 218.800 C 343.475 218.800,346.367 212.926,346.367 207.085 C 346.367 204.716,346.474 202.604,346.605 202.392 C 347.181 201.460,345.589 194.698,344.490 193.408 C 341.882 190.345,335.006 187.821,333.000 189.189 M331.600 221.600 C 332.071 222.480,331.923 222.547,329.800 222.404 C 328.354 222.307,328.233 222.212,328.538 221.417 C 328.894 220.490,331.076 220.620,331.600 221.600 "
              stroke="none" fill="#77787d" fill-rule="evenodd"></path>
        <path id="path4"
              d="M32.800 142.764 C 19.128 143.057,19.761 142.796,18.662 148.615 C 18.147 151.337,18.113 154.213,18.426 168.400 C 18.627 177.530,18.780 195.710,18.765 208.800 C 18.735 235.053,18.664 234.303,21.284 235.650 L 23.000 236.532 43.400 235.980 C 54.620 235.677,65.420 235.450,67.400 235.477 C 96.861 235.876,113.131 235.737,114.137 235.078 C 116.436 233.572,116.297 236.213,116.545 189.240 C 116.795 142.049,116.900 144.608,114.653 143.199 C 113.713 142.609,54.629 142.295,32.800 142.764 M366.695 143.438 C 366.542 143.592,357.908 143.775,347.508 143.846 C 275.174 144.339,280.573 144.131,279.367 146.463 C 278.809 147.542,278.759 148.974,278.975 157.551 C 279.317 171.067,279.576 195.131,279.608 216.263 L 279.635 233.926 280.680 234.971 C 282.242 236.533,282.868 236.603,295.000 236.568 C 301.160 236.550,317.180 236.550,330.600 236.567 C 383.564 236.636,378.435 237.124,378.827 231.980 C 379.017 229.482,378.642 172.652,378.302 152.525 L 378.200 146.450 377.030 145.230 C 376.386 144.559,375.306 143.926,374.630 143.823 C 371.967 143.418,366.958 143.175,366.695 143.438 M113.097 145.365 C 114.162 145.753,114.980 148.296,114.640 150.164 C 114.516 150.844,114.317 169.490,114.197 191.600 C 113.983 231.214,113.968 231.810,113.177 232.474 C 111.769 233.657,108.457 234.087,104.126 233.648 C 95.120 232.735,39.256 232.314,37.699 233.147 C 36.779 233.639,27.621 234.474,24.517 234.349 C 22.555 234.269,21.223 233.678,21.188 232.871 C 21.182 232.722,21.094 217.390,20.994 198.800 C 20.894 180.210,20.720 161.164,20.608 156.476 C 20.328 144.791,20.007 145.286,28.000 145.076 C 38.148 144.809,112.260 145.061,113.097 145.365 M375.100 147.054 C 376.000 148.045,376.000 148.046,375.999 163.122 C 375.999 180.171,376.304 210.108,376.591 221.200 C 376.799 229.241,376.465 233.446,375.569 234.053 C 374.664 234.668,353.856 234.310,353.080 233.667 C 352.659 233.317,351.378 233.178,349.128 233.237 C 347.298 233.285,337.822 233.286,328.070 233.238 C 316.288 233.181,310.173 233.291,309.840 233.567 C 309.196 234.101,289.129 234.774,285.452 234.385 C 282.488 234.070,282.005 233.706,282.025 231.800 C 282.152 219.987,281.520 165.718,281.188 159.914 C 280.677 150.972,280.992 147.954,282.519 147.136 C 283.143 146.802,294.817 146.586,324.742 146.353 C 347.490 146.176,366.213 145.920,366.348 145.785 C 367.088 145.046,374.214 146.078,375.100 147.054 M112.366 290.032 C 111.759 290.599,111.149 291.679,111.011 292.432 C 110.539 295.001,110.956 321.917,111.476 322.436 C 112.587 323.547,117.451 323.892,127.315 323.560 C 132.642 323.380,172.319 323.226,215.486 323.217 L 293.972 323.200 294.456 322.300 C 294.800 321.660,294.989 317.148,295.110 306.710 L 295.281 292.019 294.071 290.810 C 292.932 289.671,292.678 289.600,289.731 289.594 C 288.009 289.591,278.320 289.490,268.200 289.371 C 258.080 289.252,219.126 289.120,181.635 289.077 L 113.470 289.000 112.366 290.032 M206.280 291.757 C 271.158 291.843,291.697 291.983,292.131 292.342 C 294.309 294.150,294.073 320.612,291.872 321.279 C 291.612 321.358,266.560 321.281,236.200 321.110 C 205.840 320.938,174.610 320.886,166.800 320.993 C 158.990 321.101,143.857 321.306,133.171 321.450 L 113.743 321.711 113.171 320.355 C 112.373 318.460,112.355 295.241,113.151 293.319 C 113.838 291.661,115.175 291.182,118.400 291.438 C 119.830 291.552,159.376 291.695,206.280 291.757 "
              stroke="none" fill="#805728" fill-rule="evenodd"></path>
    </g>
</svg>
